PathFileType	3	(X/Y/Z)	C:\Users\koon_\Desktop\
DataRate	CameraRate	NumFrames	NumMarkers	Units	OrigDataRate	OrigDataStartFrame	OrigNumFrames
100.0	100.0	14	27	mm	100.0	1	3309	
Frame#	Time	get:LFHD			get:RFHD			get:LBHD			get:RBHD			get:C7			get:T10			get:CLAV			get:STRN			get:RBAK			get:LSHO			get:LUPA			get:LELB			get:LFRA			get:LWRA			get:LWRB			get:LFIN			get:RSHO			get:RUPA			get:RELB			get:RFRA			get:RWRA			get:RWRB			get:RFIN			get:LASI			get:RASI			get:LPSI			get:RPSI			
		X1	Y1	Z1	X2	Y2	Z2	X3	Y3	Z3	X4	Y4	Z4	X5	Y5	Z5	X6	Y6	Z6	X7	Y7	Z7	X8	Y8	Z8	X9	Y9	Z9	X10	Y10	Z10	X11	Y11	Z11	X12	Y12	Z12	X13	Y13	Z13	X14	Y14	Z14	X15	Y15	Z15	X16	Y16	Z16	X17	Y17	Z17	X18	Y18	Z18	X19	Y19	Z19	X20	Y20	Z20	X21	Y21	Z21	X22	Y22	Z22	X23	Y23	Z23	X24	Y24	Z24	X25	Y25	Z25	X26	Y26	Z26	X27	Y27	Z27	
1	0	94.754608	1556.7511	-30.185818	-46.520802	1553.9489	-30.767626	71.416847	1554.0774	-190.88458	-57.83902	1527.6317	-195.88275	24.867023	1335.3921	-214.70415	18.862295	1125.8777	-256.85681	25.656771	1268.1648	-25.072861	36.429501	1072.861	16.60034	-57.83765	1256.792	-237.50349	159.64868	1345.2196	-132.72546	253.52853	1210.4764	-106.24454	273.02466	1008.7651	-113.92916	246.54068	883.75146	-30.859167	210.11694	805.35394	-14.119883	272.5397	793.53412	-70.682762	263.81168	728.07111	1.0545222	-112.26962	1331.1405	-125.94759	-199.24374	1115.2917	-72.626228	-217.98448	996.22827	-123.85684	-200.77609	951.33588	-36.142208	-158.36465	796.20709	-6.2962055	-220.1805	786.85602	-59.154484	-203.15657	720.88434	20.580481	165.2338	892.81189	-28.204744	-100.86965	876.79059	-17.113062	64.350662	946.97119	-240.64848	-25.480894	945.26257	-238.7646
2	0.01	94.56881	1556.781	-30.072567	-46.718422	1553.9229	-30.648748	71.201614	1554.1163	-190.81349	-58.049179	1527.6604	-195.80867	24.697245	1335.4646	-214.75491	18.706396	1125.9263	-256.92169	25.586664	1268.1335	-25.07958	36.496712	1072.8033	16.512203	-58.021984	1256.8029	-237.45598	159.46867	1345.2695	-132.76259	253.40437	1210.5704	-106.40218	272.95868	1008.8451	-114.16644	246.58548	883.80872	-31.106829	210.17943	805.37592	-14.326067	272.56616	793.61359	-70.979759	263.90619	728.10797	0.66944087	-112.43719	1331.0857	-125.88257	-199.34622	1115.2091	-72.865456	-218.04779	996.16461	-123.85492	-200.79128	951.20532	-36.185043	-158.37057	796.05817	-6.4046702	-219.71974	787.00928	-59.612198	-203.13326	720.73236	20.473547	165.2652	892.8194	-28.39699	-100.86964	876.79059	-17.113167	64.276604	946.97565	-240.80804	-25.578903	945.27936	-238.81856
3	0.02	94.366699	1556.7554	-29.994015	-46.884808	1553.8744	-30.501167	71.01107	1554.1489	-190.7141	-58.228149	1527.6791	-195.71719	24.470423	1335.502	-214.6678	18.554895	1126.0188	-256.97372	25.513472	1268.082	-25.037384	35.79734	1072.6947	16.471128	-58.199371	1256.832	-237.41489	159.33572	1345.3384	-132.81187	253.29115	1210.6542	-106.536	272.9361	1008.9174	-114.40394	246.58675	883.86499	-31.369022	210.16135	806.0683	-13.386784	272.55859	793.64362	-71.252594	263.99057	728.16754	0.27911037	-112.56748	1331.0314	-125.72932	-199.39525	1115.0922	-72.73159	-218.09537	996.07532	-123.78827	-200.76817	951.08801	-36.018188	-158.33228	795.93707	-6.4601874	-219.72867	786.91852	-59.665894	-203.05231	720.5686	20.346041	165.31998	892.84686	-28.58832	-100.83266	876.7674	-17.147028	64.139069	947.00116	-240.92427	-25.707537	945.29309	-238.87892
4	0.03	94.181282	1556.7227	-29.877262	-47.074375	1553.835	-30.374571	70.772118	1554.2139	-190.57758	-58.412315	1527.7145	-195.61806	24.297758	1335.5549	-214.70839	18.408735	1126.0547	-257.00458	25.46253	1268.0679	-25.086519	35.86615	1072.6547	16.383808	-58.381767	1256.8143	-237.30685	159.16661	1345.4073	-132.82767	253.20866	1210.7147	-106.73559	272.86087	1009.006	-114.67931	246.6434	883.90228	-31.686752	210.19063	806.09735	-13.647569	272.59744	793.72662	-71.546654	264.09384	728.22351	-0.098489381	-112.7336	1331.0186	-125.67334	-199.49512	1115.0387	-72.878082	-218.12952	995.98657	-123.71398	-200.78116	950.98907	-36.058998	-158.28326	795.83551	-6.5701346	-220.10254	786.5752	-59.269104	-203.00775	720.38464	20.209387	165.29945	892.88043	-28.817507	-100.80728	876.7804	-17.236599	64.020401	946.99213	-241.03546	-25.778059	945.28577	-238.92888
5	0.04	93.963074	1556.7103	-29.780254	-47.243393	1553.7604	-30.268038	70.561684	1554.2593	-190.48039	-58.633121	1527.7278	-195.43832	24.060928	1335.5724	-214.57079	18.225004	1126.1024	-257.02576	25.382288	1268.0109	-25.015432	35.925117	1072.6243	16.319277	-58.571415	1256.8442	-237.27509	159.01501	1345.4579	-132.88115	253.09769	1210.7767	-106.86111	272.85861	1009.0971	-114.99368	246.64461	883.94482	-31.948277	210.27844	806.15271	-13.945585	272.58252	793.79681	-71.860062	264.19675	728.29297	-0.40140712	-112.88409	1330.9609	-125.47598	-199.5106	1114.9376	-72.653122	-218.17252	995.92487	-123.64763	-200.79387	950.8725	-36.155807	-158.19861	795.69189	-6.6006846	-219.67238	786.69568	-59.739346	-202.91925	720.21576	20.03463	165.36751	892.90814	-29.005724	-100.75462	876.77283	-17.298828	63.890434	947.03046	-241.19884	-25.884628	945.32367	-239.0437
6	0.05	93.794411	1556.6544	-29.684061	-47.396397	1553.6981	-30.061792	70.303581	1554.3112	-190.33664	-58.818859	1527.7494	-195.30481	23.869558	1335.5962	-214.5179	18.052193	1126.1434	-257.06268	25.315119	1267.9764	-25.03961	35.951519	1072.5675	16.217196	-58.762459	1256.8601	-237.22772	158.8587	1345.509	-132.95085	253.01576	1210.8499	-107.01463	272.83051	1009.2034	-115.23421	246.67719	884.00446	-32.239185	210.35219	806.17645	-14.223836	272.59003	793.88678	-72.147339	264.29782	728.35242	-0.78667766	-113.01112	1330.9146	-125.39974	-199.56927	1114.8605	-72.691971	-218.20306	995.82471	-123.59565	-200.761	950.7558	-36.050037	-158.15337	795.56976	-6.7275696	-219.63757	786.58105	-59.802292	-203.12404	719.9455	18.312044	165.38756	892.9353	-29.176672	-100.72897	876.76624	-17.354757	63.768787	947.02576	-241.34818	-26.016399	945.2876	-239.12842
7	0.06	93.612892	1556.6177	-29.536764	-47.582195	1553.6484	-29.931757	70.105774	1554.3798	-190.21397	-59.01968	1527.752	-195.17036	23.638988	1335.6082	-214.47519	17.873791	1126.2118	-257.15393	25.25732	1267.9645	-25.05909	35.988911	1072.5522	16.12195	-58.963734	1256.8441	-237.13728	158.7014	1345.5574	-132.97997	252.95067	1210.9305	-107.20245	272.80887	1009.2725	-115.50169	246.68825	884.0509	-32.497372	210.38417	806.22504	-14.494075	272.59369	793.93433	-72.419525	264.36032	728.40503	-1.0464476	-113.16036	1330.829	-125.15565	-199.58801	1114.7593	-72.50708	-218.23518	995.7417	-123.51016	-200.71376	950.61908	-35.946144	-158.06447	795.43738	-6.7794056	-219.59819	786.45935	-59.898262	-203.00296	719.81201	18.308683	165.37727	892.96033	-29.361389	-100.72756	876.74683	-17.312046	63.675068	947.02448	-241.48433	-26.110415	945.26862	-239.23546
8	0.07	93.430298	1556.5728	-29.434893	-47.743454	1553.562	-29.732145	69.901382	1554.3951	-190.07582	-59.237617	1527.7921	-195.0074	23.426714	1335.6317	-214.39975	17.720404	1126.245	-257.18207	25.205032	1267.9307	-25.058159	36.026981	1072.5024	16.044611	-59.140694	1256.8855	-237.09991	158.55438	1345.6183	-133.04762	252.83867	1210.989	-107.37851	272.71277	1009.335	-115.69028	246.73149	884.13812	-32.763145	210.43221	806.25397	-14.771644	272.60107	794.01343	-72.739243	264.45175	728.49066	-1.2328469	-113.31269	1330.7852	-125.10195	-199.62268	1114.6255	-72.31752	-218.26788	995.64899	-123.48148	-200.6425	950.4986	-35.851376	-157.98976	795.31012	-6.855875	-219.53838	786.36499	-59.910564	-202.65109	719.77722	19.655994	165.38759	892.96173	-29.57609	-100.68726	876.72382	-17.330158	63.564247	947.02661	-241.62527	-26.264364	945.2583	-239.30193
9	0.08	93.272049	1556.5647	-29.330915	-47.929787	1553.5154	-29.586559	69.65757	1554.4509	-189.98125	-59.473392	1527.7896	-194.81674	23.213116	1335.7118	-214.52708	17.577169	1126.2841	-257.24319	25.133005	1267.8418	-25.003736	36.0462	1072.4614	15.931139	-59.31419	1256.8949	-237.06674	158.41196	1345.6692	-133.08949	252.76268	1211.0504	-107.55187	272.67334	1009.4161	-115.90356	246.75624	884.19904	-33.030083	210.58067	805.76953	-16.043676	272.55908	794.04791	-73.043716	264.49591	728.54083	-1.468339	-113.43456	1330.7399	-124.90781	-199.65758	1114.5594	-72.354599	-218.31241	995.56689	-123.40781	-200.60446	950.34509	-35.673901	-157.87616	795.18732	-6.8958397	-219.48502	786.23889	-59.841293	-202.54526	719.68713	19.642643	165.35962	892.97882	-29.768419	-100.66753	876.70325	-17.360033	63.439934	947.0127	-241.73329	-26.355375	945.2077	-239.37444
10	0.09	93.115761	1556.5178	-29.246386	-48.032169	1553.4553	-29.405321	69.41246	1554.5062	-189.84467	-59.693119	1527.7742	-194.66133	23.036657	1335.7446	-214.47165	17.400099	1126.301	-257.28452	25.081692	1267.8264	-25.049944	36.030975	1072.4102	15.83579	-59.535446	1256.894	-237.04613	158.26126	1345.72	-133.17223	252.64749	1211.1238	-107.71796	272.64713	1009.4403	-116.17573	246.76753	884.24158	-33.304375	210.63992	805.83527	-16.249035	272.54257	794.10541	-73.312119	264.54538	728.56543	-1.6860198	-113.57277	1330.6952	-124.8445	-199.63341	1114.4558	-72.080643	-218.33879	995.46399	-123.33324	-200.53571	950.25519	-35.611404	-157.75639	795.08575	-6.8919168	-219.67491	785.94836	-59.545128	-202.42683	719.54761	19.538422	165.37315	893.01263	-29.931486	-100.68941	876.71393	-17.375643	63.362896	946.99371	-241.86766	-26.451523	945.21344	-239.47754
11	0.1	92.985626	1556.4852	-29.121178	-48.17392	1553.392	-29.229988	69.178108	1554.5474	-189.76546	-59.91238	1527.7926	-194.4926	22.835268	1335.7776	-214.43385	17.246344	1126.3693	-257.35263	25.006315	1267.7749	-25.011585	36.025192	1072.3916	15.755296	-59.721081	1256.9012	-236.98395	158.10544	1345.7628	-133.22002	252.55659	1211.1848	-107.89194	272.59967	1009.496	-116.41142	246.81122	884.29272	-33.50906	210.69533	805.85529	-16.459888	272.51874	794.15173	-73.585846	264.58789	728.58514	-1.9671251	-113.7085	1330.6622	-124.80986	-199.68394	1114.3732	-72.059029	-218.35019	995.35986	-123.25653	-200.47997	950.11621	-35.435848	-157.62823	794.95831	-6.8873	-219.54056	785.85608	-59.586304	-202.28586	719.41791	19.451954	165.35097	893.03845	-30.093895	-100.70562	876.74628	-17.36948	63.245968	946.9859	-241.97783	-26.561892	945.18231	-239.56084
12	0.11	92.830772	1556.4623	-29.023317	-48.336437	1553.3274	-29.030081	68.957184	1554.5752	-189.63895	-60.167484	1527.7982	-194.29744	22.631611	1335.8107	-214.44098	17.123947	1126.4227	-257.43988	24.968136	1267.7734	-25.024839	36.043282	1072.373	15.659213	-59.925747	1256.9136	-236.93951	157.94974	1345.7797	-133.32678	252.44659	1211.2435	-108.06633	272.5538	1009.5491	-116.68227	246.81364	884.34351	-33.772064	210.69545	805.90131	-16.661402	272.48083	794.17731	-73.847328	264.66739	728.70917	-2.0302763	-113.8451	1330.6138	-124.66296	-199.6992	1114.2698	-71.895866	-218.39037	995.28723	-123.23114	-200.43634	950.04224	-35.385643	-157.5262	794.87427	-6.886477	-219.42036	785.73987	-59.491714	-202.12097	719.31323	19.493744	165.33643	893.05493	-30.253262	-100.70322	876.73541	-17.488672	63.133961	946.98792	-242.12016	-26.640457	945.14258	-239.54495
13	0.12	92.685081	1556.4259	-28.978977	-48.458614	1553.2479	-28.918877	68.709702	1554.6144	-189.54692	-60.432838	1527.8027	-194.17183	22.444832	1335.8159	-214.43037	16.964659	1126.4031	-257.39084	24.905127	1267.7225	-25.09277	36.04055	1072.3352	15.5751	-60.087357	1256.9426	-236.94939	157.77979	1345.8198	-133.41371	252.36401	1211.2756	-108.2296	272.49002	1009.616	-116.92486	246.80829	884.37671	-34.008526	210.7334	805.95612	-16.830011	272.44647	794.22809	-74.104698	264.69147	728.75	-2.2416401	-113.96883	1330.5673	-124.60085	-199.71278	1114.1917	-71.777954	-218.36755	995.20343	-123.1626	-200.40791	949.94086	-35.533333	-157.40869	794.80798	-6.8644958	-219.26085	785.69189	-59.558773	-201.95155	719.19427	19.479647	165.29488	893.08295	-30.339212	-100.73037	876.7204	-17.503662	63.05579	946.96124	-242.20889	-26.720623	945.10931	-239.69109
14	0.13	92.560242	1556.3942	-28.896936	-48.616146	1553.2008	-28.720272	68.433128	1554.6799	-189.49649	-60.656662	1527.8362	-194.01996	22.264708	1335.8097	-214.37721	16.834621	1126.4354	-257.41769	24.823524	1267.698	-25.095831	36.024788	1072.2788	15.513901	-60.279785	1256.9058	-236.87831	157.63858	1345.8636	-133.45711	252.26721	1211.3469	-108.39651	272.41547	1009.6543	-117.14516	246.81352	884.39618	-34.230068	210.74808	805.96857	-16.995729	272.41956	794.25177	-74.286827	264.70026	728.77881	-2.451519	-114.10732	1330.5323	-124.56364	-199.75163	1114.1128	-71.730667	-218.39148	995.09924	-123.10526	-200.32051	949.85126	-35.425449	-157.26369	794.73584	-6.8746009	-218.98746	785.7052	-59.6768	-201.76897	719.09766	19.459129	165.25439	893.09784	-30.487265	-100.78185	876.74829	-17.476927	62.977852	946.94751	-242.29536	-26.782238	945.11005	-239.74928
